<?xml version="1.0" encoding="UTF-8"?>
<svg width="357px" height="62px" viewBox="0 0 357 62" version="1.1" xmlns="http://www.w3.org/2000/svg" xmlns:xlink="http://www.w3.org/1999/xlink">
    <!-- Generator: Sketch 57.1 (83088) - https://sketch.com -->
    <title>Group</title>
    <desc>Created with Sketch.</desc>
    <g id="Page-1" stroke="none" stroke-width="1" fill="none" fill-rule="evenodd">
        <g id="Artboard" transform="translate(-27.000000, -16.000000)">
            <g id="Group" transform="translate(27.000000, 16.000000)">
                <path d="M105.05,39.115 L91.64,39.115 L89.21,46 L83.72,46 L95.42,14.725 L101.315,14.725 L112.97,46 L107.48,46 L105.05,39.115 Z M103.61,35.155 L98.345,20.305 L93.08,35.155 L103.61,35.155 Z M132.5,14.23 L132.5,33.085 C132.5,35.9050141 133.122494,38.0049931 134.3675,39.385 C135.612506,40.7650069 137.359989,41.455 139.61,41.455 C141.830011,41.455 143.562494,40.7650069 144.8075,39.385 C146.052506,38.0049931 146.675,35.9050141 146.675,33.085 L146.675,14.23 L151.805,14.23 L151.805,33.085 C151.805,37.4350218 150.680011,40.7274888 148.43,42.9625 C146.179989,45.1975112 143.210018,46.315 139.52,46.315 C135.859982,46.315 132.920011,45.1975112 130.7,42.9625 C128.479989,40.7274888 127.37,37.4350218 127.37,33.085 L127.37,14.23 L132.5,14.23 Z M186.725,46 L179.12,34.255 L172.325,46 L166.43,46 L176.285,29.8 L166.205,14.23 L172.325,14.23 L179.795,25.75 L186.545,14.23 L192.44,14.23 L182.63,30.16 L192.845,46 L186.725,46 Z M212.6,14.23 L212.6,46 L207.47,46 L207.47,14.23 L212.6,14.23 Z M234.74,41.995 L245.72,41.995 L245.72,46 L229.61,46 L229.61,14.23 L234.74,14.23 L234.74,41.995 Z M265.655,14.23 L265.655,46 L260.525,46 L260.525,14.23 L265.655,14.23 Z M287.57,14.23 L287.57,33.085 C287.57,35.9050141 288.192494,38.0049931 289.4375,39.385 C290.682506,40.7650069 292.429989,41.455 294.68,41.455 C296.900011,41.455 298.632494,40.7650069 299.8775,39.385 C301.122506,38.0049931 301.745,35.9050141 301.745,33.085 L301.745,14.23 L306.875,14.23 L306.875,33.085 C306.875,37.4350218 305.750011,40.7274888 303.5,42.9625 C301.249989,45.1975112 298.280018,46.315 294.59,46.315 C290.929982,46.315 287.990011,45.1975112 285.77,42.9625 C283.549989,40.7274888 282.44,37.4350218 282.44,33.085 L282.44,14.23 L287.57,14.23 Z M356.6,14.725 L356.6,46 L351.425,46 L351.425,22.555 L342.38,46 L337.88,46 L328.79,22.555 L328.79,46 L323.66,46 L323.66,14.725 L329.87,14.725 L340.22,39.7 L350.39,14.725 L356.6,14.725 Z" id="AUXILIUM" fill="#1F1F1F" fill-rule="nonzero"></path>
                <circle id="Oval" fill="#1364F5" cx="19" cy="18" r="18"></circle>
                <circle id="Oval" fill="#6A6A6A" cx="47.5" cy="44.5" r="14.5"></circle>
                <circle id="Oval" fill-opacity="0.61565778" fill="#3A80FE" cx="11" cy="51" r="11"></circle>
            </g>
        </g>
    </g>
</svg>