<svg width="114px" height="115px" viewBox="0 0 114 115" version="1.1" xmlns="http://www.w3.org/2000/svg" xmlns:xlink="http://www.w3.org/1999/xlink">
    <!-- Generator: Sketch 57.1 (83088) - https://sketch.com -->
    <title>github-color</title>
    <desc>Created with Sketch.</desc>
    <g id="Welcome" stroke="none" stroke-width="1" fill="none" fill-rule="evenodd">
        <g id="Desktop" transform="translate(-705.000000, -44.000000)">
            <g id="github-color" transform="translate(705.000000, 44.000000)">
                <circle id="Oval" fill="#FFFFFF" cx="57" cy="58" r="57"></circle>
                <g id="github-logo" fill="#000000" fill-rule="nonzero">
                    <path d="M106.353833,29.1004537 C101.256735,20.1481897 94.3428466,13.0606699 85.6103487,7.83629535 C76.8765511,2.61165434 67.3418478,0 56.9994801,0 C46.6584121,0 37.1205894,2.61245374 28.3886115,7.83629535 C19.6553338,13.0604034 12.7417055,20.1481897 7.64460741,29.1004537 C2.54828912,38.0524512 0,47.8281017 0,58.4271389 C0,71.1589871 3.62370196,82.6077911 10.8729255,92.7764822 C18.1213693,102.945973 27.4852855,109.982864 38.9638943,113.887954 C40.3000369,114.142165 41.2891464,113.963365 41.9322625,113.356084 C42.5756386,112.748004 42.8969367,111.986438 42.8969367,111.074584 C42.8969367,110.92243 42.8841991,109.553583 42.8595039,106.966444 C42.8340288,104.379305 42.8220711,102.12232 42.8220711,100.196554 L41.11498,100.499262 C40.0265696,100.703643 38.6535141,100.790245 36.9958134,100.76573 C35.3388926,100.742015 33.618804,100.564014 31.837887,100.23306 C30.0561902,99.9050381 28.3990095,99.1442715 26.8650449,97.9523595 C25.3318603,96.7604475 24.2434499,95.2002765 23.6000739,93.2742447 L22.8579168,91.5235489 C22.3632321,90.3580172 21.5844222,89.0632485 20.5204471,87.6440391 C19.4564721,86.2234974 18.3805393,85.2604815 17.292129,84.7533926 L16.7724891,84.3720767 C16.4262358,84.1186655 16.1049377,83.8130265 15.8078149,83.4583574 C15.5109521,83.1036883 15.2886949,82.7487528 15.1402635,82.3932842 C14.9915721,82.0375493 15.1147884,81.7457666 15.5112121,81.5168705 C15.9076357,81.2879744 16.6240577,81.1768571 17.6635974,81.1768571 L19.1473916,81.4041545 C20.137021,81.6074697 21.3611252,82.2147506 22.8212639,83.2297278 C24.2806228,84.2439055 25.4802917,85.56239 26.4205306,87.184648 C27.5591112,89.2646984 28.930867,90.849651 30.5396971,91.9403051 C32.1472274,93.0309593 33.7680152,93.5753537 35.4005007,93.5753537 C37.0329863,93.5753537 38.4429547,93.4485148 39.6309258,93.1961695 C40.8175972,92.9424918 41.9309628,92.5611759 42.9705025,92.0543535 C43.4157967,88.6547528 44.6282032,86.0430985 46.6066821,84.2175252 C43.7867453,83.9137515 41.2514537,83.4562257 38.9995075,82.8478789 C36.748861,82.2387327 34.423089,81.2501359 32.0237512,79.8794237 C29.6231137,78.5105768 27.6316373,76.8107765 26.0488022,74.7829539 C24.4657071,72.7540654 23.1664774,70.0904498 22.1529326,66.7945052 C21.138868,63.4972283 20.6317057,59.693662 20.6317057,55.3827402 C20.6317057,49.2446464 22.5865291,44.0213377 26.4953962,39.7098831 C24.6643089,35.0951877 24.8371756,29.921975 27.0145162,24.190778 C28.4494397,23.7337852 30.5773898,24.0767297 33.3973266,25.2174798 C36.2177833,26.3587629 38.2828255,27.3364345 39.5945328,28.1470307 C40.9062402,28.9573603 41.9572177,29.6440487 42.7490252,30.2009672 C47.3514386,28.8827492 52.1009837,28.223507 56.9989602,28.223507 C61.8969367,28.223507 66.6475216,28.8827492 71.250195,30.2009672 L74.0703917,28.3759268 C75.9989602,27.1581674 78.2763815,26.0421987 80.8971966,25.0277545 C83.5195715,24.0138432 85.5248252,23.7345846 86.9108782,24.1915774 C89.1365695,29.9230409 89.3349113,35.0959871 87.5033041,39.7106825 C91.4119112,44.0221371 93.3675145,49.2467782 93.3675145,55.3835397 C93.3675145,59.6944614 92.8585325,63.5100188 91.8460276,66.8326102 C90.8322228,70.1557345 89.5218153,72.8166854 87.9142849,74.8210588 C86.3049349,76.8251658 84.300721,78.5116427 81.9013832,79.8802231 C79.5015255,81.2498694 77.1749737,82.2384663 74.9243272,82.8476124 C72.672641,83.4567586 70.1373493,83.9145509 67.3174125,84.2188575 C69.8893571,86.5003578 71.1755893,90.1016749 71.1755893,95.0212099 L71.1755893,111.072452 C71.1755893,111.984306 71.4849297,112.745605 72.1041305,113.353952 C72.7225513,113.961233 73.6991832,114.140033 75.0353258,113.885556 C86.5154944,109.980998 95.8794106,102.943841 103.127594,92.7743504 C110.374998,82.6056594 114,71.1568553 114,58.4250071 C113.997401,47.8273023 111.447812,38.0524512 106.353833,29.1004537 Z" id="Path"></path>
                </g>
            </g>
        </g>
    </g>
</svg>